# Blender 5.1.1
# www.blender.org
mtllib bigredbutton.mtl
o Cube
v -1.219327 0.728038 -1.040839
v -1.219327 -0.278804 -1.040839
v -1.219327 0.728038 0.203343
v -1.219327 -0.278804 0.203343
v -1.487322 -0.173936 -0.824015
v -1.487322 -0.173936 -0.013480
v -1.487322 0.623170 -0.013480
v -1.487322 0.623170 -0.824015
v 1.220288 0.657486 -1.129408
v 1.220288 0.752498 -1.034397
v 1.220288 -0.303263 -1.034397
v 1.220288 -0.208251 -1.129408
v 1.220288 0.752498 1.034447
v 1.220288 0.657486 1.129459
v 1.220288 -0.208251 1.129459
v 1.220288 -0.303263 1.034447
v -1.219327 -0.235858 -1.196058
v -1.219327 -0.369913 -1.062004
v -1.219327 -0.302053 -1.080448
v -1.219327 -0.369913 1.062054
v -1.219327 -0.235858 1.196108
v -1.219327 -0.357662 1.062615
v -1.219327 0.685093 1.196108
v -1.219327 0.819147 1.062054
v -1.219327 0.806896 1.062615
v -1.219327 0.819147 -1.062004
v -1.219327 0.685093 -1.196058
v -1.219327 0.751288 -1.080448
v 0.000481 0.819147 1.062054
v 1.220288 0.752498 0.000025
v 0.000481 0.819147 -1.062004
v -1.219327 0.819147 0.000025
v -0.587989 0.931788 0.000025
v 0.000481 0.931788 0.588495
v 0.588950 0.931788 0.000025
v 0.000481 0.931788 -0.588445
v -0.211931 0.931788 -0.655917
v -0.486961 0.931788 -0.487417
v -0.655462 0.931788 -0.212386
v -0.655462 0.931788 0.212436
v -0.486961 0.931788 0.487467
v -0.211931 0.931788 0.655967
v 0.212892 0.931788 0.655967
v 0.487922 0.931788 0.487467
v 0.656423 0.931788 0.212436
v 0.656423 0.931788 -0.212386
v 0.487922 0.931788 -0.487417
v 0.212892 0.931788 -0.655917
v -0.811744 0.819147 -0.270717
v -0.855679 0.819147 0.000025
v -0.270261 0.819147 0.812250
v 0.000481 0.819147 0.856185
v 0.812705 0.819147 0.270767
v 0.856640 0.819147 0.000025
v 0.271222 0.819147 -0.812200
v 0.000481 0.819147 -0.856135
v -0.270261 0.819147 -0.812200
v -0.604916 0.819147 -0.605371
v -0.811744 0.819147 0.270767
v -0.604916 0.819147 0.605421
v 0.271222 0.819147 0.812250
v 0.605877 0.819147 0.605421
v 0.812705 0.819147 -0.270717
v 0.605877 0.819147 -0.605371
v -0.560799 0.931788 -0.177527
v -0.688866 0.931788 0.000025
v -0.177072 0.931788 0.561305
v 0.000481 0.931788 0.689372
v 0.561760 0.931788 0.177577
v 0.689827 0.931788 0.000025
v 0.178033 0.931788 -0.561255
v 0.000481 0.931788 -0.689322
v -0.177072 0.931788 -0.561255
v -0.415630 0.931788 -0.416086
v -0.560799 0.931788 0.177577
v -0.415630 0.931788 0.416136
v 0.178033 0.931788 0.561305
v 0.416591 0.931788 0.416136
v 0.561760 0.931788 -0.177527
v 0.416591 0.931788 -0.416086
v 0.000480 -0.000000 -0.520715
v 0.178033 -0.000000 -0.561255
v -0.560799 -0.000000 0.177577
v -0.520259 -0.000000 0.000025
v -0.259889 -0.000000 -0.260345
v 0.260850 -0.000000 -0.260345
v 0.416591 -0.000000 -0.416086
v -0.415630 -0.000000 0.416136
v -0.259889 -0.000000 0.260395
v 0.000481 -0.000000 0.000025
v 0.521220 -0.000000 0.000025
v 0.561760 -0.000000 -0.177527
v -0.177072 -0.000000 0.561305
v 0.000481 -0.000000 0.520765
v 0.260850 -0.000000 0.260395
v -0.560799 -0.000000 -0.177527
v -0.415630 -0.000000 -0.416086
v -0.177072 -0.000000 -0.561255
v 0.178033 -0.000000 0.561305
v 0.416591 -0.000000 0.416136
v 0.561760 -0.000000 0.177577
v -0.587989 -0.000000 0.000025
v 0.000481 -0.000000 0.588495
v 0.588950 -0.000000 0.000025
v 0.000481 -0.000000 -0.588445
v 1.220288 -0.235858 -1.196058
v 1.220288 -0.369913 -1.062004
v 1.220288 0.685093 1.196108
v 1.220288 0.819147 1.062054
v 1.220288 -0.369913 1.062054
v 1.220288 -0.235858 1.196108
v 1.220288 0.819147 -1.062004
v 1.220288 0.685093 -1.196058
v 1.220288 0.819147 0.000025
v 1.092791 -0.208251 -1.129408
v 1.092791 -0.303263 -1.034397
v 1.092791 0.657486 1.129459
v 1.092791 0.752498 1.034447
v 1.092791 -0.303263 1.034447
v 1.092791 -0.208251 1.129459
v 1.092791 0.752498 -1.034397
v 1.092791 0.657486 -1.129408
v 1.092791 0.752498 0.000025
v -1.487322 -0.173936 -0.418748
v -1.487322 0.224617 -0.013480
v -1.487322 0.224617 -0.824015
v -1.487322 0.623170 -0.418748
v -1.487322 0.224617 -0.610797
v -1.487322 0.032568 -0.418748
v -1.487322 0.224617 -0.226698
v -1.487322 0.416667 -0.418748
v -1.487322 0.360417 -0.554547
v -1.487322 0.088818 -0.554547
v -1.487322 0.088818 -0.282948
v -1.487322 0.360417 -0.282948
v -3.391540 0.281911 -0.361455
v -3.391540 0.305642 -0.418748
v -3.391537 0.281911 -0.476041
v -3.391538 0.224617 -0.499773
v -3.391537 0.167324 -0.476041
v -3.391538 0.143592 -0.418748
v -3.391537 0.167324 -0.361455
v -3.391538 0.224617 -0.337723
v -3.478501 0.381426 -0.262191
v -3.443295 0.415327 -0.418747
v -3.478485 0.381442 -0.575119
v -3.443071 0.224617 -0.609139
v -3.443101 0.224617 -0.228173
v -3.478483 0.067814 -0.575120
v -3.443292 0.033929 -0.418747
v -3.478500 0.067830 -0.262189
v -3.795714 0.385659 -0.257966
v -3.831602 0.423095 -0.418750
v -3.795731 0.385676 -0.579344
v -3.831834 0.224617 -0.616917
v -3.831803 0.224617 -0.220396
v -3.795732 0.063580 -0.579345
v -3.831605 0.026161 -0.418750
v -3.795716 0.063597 -0.257964
v -3.916275 0.224631 -0.418786
v -3.633571 0.419185 -0.612773
v -3.630343 0.224613 -0.693386
v -3.633572 0.419154 -0.224539
v -3.630369 0.499342 -0.418781
v -3.630369 -0.050089 -0.418781
v -3.633572 0.030101 -0.224536
v -3.633570 0.030071 -0.612776
v -3.630347 0.224613 -0.143957
vn -0.6290 -0.0000 -0.7774
vn -0.3644 -0.9312 -0.0000
vn -0.3644 0.9312 -0.0000
vn -0.6290 -0.0000 0.7774
vn -1.0000 -0.0000 -0.0000
vn -0.0000 -0.7071 -0.7071
vn -0.0000 0.7071 0.7071
vn -0.0000 -0.7071 0.7071
vn -0.0000 0.7071 -0.7071
vn -0.0000 -0.0000 -1.0000
vn -0.0000 -1.0000 -0.0000
vn -0.0000 -0.0000 1.0000
vn 0.8543 -0.0000 -0.5198
vn -0.0000 1.0000 -0.0000
vn -0.5198 -0.0000 0.8543
vn 0.9885 -0.0000 0.1514
vn 0.9885 -0.0000 -0.1514
vn -0.8543 -0.0000 0.5198
vn 0.8543 -0.0000 0.5198
vn -0.9885 -0.0000 0.1514
vn 0.5198 -0.0000 0.8543
vn -0.8543 -0.0000 -0.5198
vn 0.1514 -0.0000 0.9885
vn -0.5198 -0.0000 -0.8543
vn -0.1514 -0.0000 0.9885
vn -0.1514 -0.0000 -0.9885
vn -0.9885 -0.0000 -0.1514
vn 0.5198 -0.0000 -0.8543
vn 0.1514 -0.0000 -0.9885
vn -0.5587 0.8245 -0.0894
vn -0.0894 0.8245 0.5587
vn 0.5587 0.8245 0.0894
vn 0.0894 0.8245 -0.5587
vn -0.0894 0.8245 -0.5587
vn -0.2981 0.8226 -0.4842
vn -0.4842 0.8226 -0.2981
vn -0.5587 0.8245 0.0894
vn -0.4842 0.8226 0.2981
vn -0.2981 0.8226 0.4842
vn 0.0894 0.8245 0.5587
vn 0.2981 0.8226 0.4842
vn 0.4842 0.8226 0.2981
vn 0.5587 0.8245 -0.0894
vn 0.4842 0.8226 -0.2981
vn 0.2981 0.8226 -0.4842
vn 1.0000 -0.0000 -0.0000
vn -0.0582 0.9983 -0.0000
vn -0.0582 0.7059 0.7059
vn -0.0582 -0.9983 -0.0000
vn -0.0582 -0.7059 -0.7059
vn -0.0582 -0.0000 -0.9983
vn -0.0582 0.7059 -0.7059
vn -0.0582 -0.0000 0.9983
vn -0.0582 -0.7059 0.7059
vn 0.8643 0.3559 0.3555
vn 0.8877 0.4604 -0.0001
vn 0.6748 0.7380 -0.0001
vn 0.5762 0.5782 0.5776
vn 0.8641 0.3559 -0.3558
vn 0.5762 0.5782 -0.5777
vn 0.8879 -0.0000 0.4600
vn 0.6751 -0.0000 0.7377
vn 0.8877 -0.0000 -0.4604
vn 0.6750 -0.0000 -0.7378
vn 0.8877 -0.4605 -0.0001
vn 0.8643 -0.3559 0.3555
vn 0.5762 -0.5782 0.5776
vn 0.6748 -0.7380 -0.0001
vn 0.8641 -0.3560 -0.3558
vn 0.5762 -0.5782 -0.5777
vn 0.0279 -0.9996 -0.0002
vn 0.0219 -0.7073 0.7065
vn -0.5625 -0.5849 0.5843
vn -0.6941 -0.7199 -0.0001
vn 0.0279 -0.0000 -0.9996
vn 0.0219 -0.7073 -0.7066
vn -0.5624 -0.5849 -0.5844
vn -0.6945 -0.0000 -0.7195
vn 0.0219 0.7073 0.7065
vn 0.0279 0.9996 -0.0002
vn -0.6941 0.7199 -0.0001
vn -0.5625 0.5849 0.5843
vn 0.0219 0.7073 -0.7066
vn -0.5624 0.5849 -0.5845
vn 0.0279 -0.0000 0.9996
vn -0.6945 -0.0000 0.7195
vn -1.0000 -0.0000 -0.0002
vt 0.613225 0.241364
vt 0.386775 0.241364
vt 0.500000 0.241364
vt 0.386775 0.008636
vt 0.386775 0.125000
vt 0.613225 0.008636
vt 0.613225 0.125000
vt 0.500000 0.008636
vt 0.395270 0.248915
vt 0.375000 0.235990
vt 0.383770 0.243568
vt 0.375000 0.014010
vt 0.389165 0.000053
vt 0.376583 0.001161
vt 0.610835 0.000053
vt 0.625000 0.014010
vt 0.623417 0.001161
vt 0.622479 0.243481
vt 0.596815 0.250000
vt 0.616230 0.243568
vt 0.375000 0.514010
vt 0.125000 0.514010
vt 0.125000 0.500000
vt 0.393790 0.500000
vt 0.625000 0.870330
vt 0.625000 0.935165
vt 0.625000 1.000000
vt 0.596815 1.000000
vt 0.596815 0.750000
vt 0.125000 0.735990
vt 0.375000 0.735990
vt 0.393790 0.750000
vt 0.125000 0.750000
vt 0.623739 0.376410
vt 0.624370 0.442875
vt 0.625000 0.509340
vt 0.596815 0.500000
vt 0.590655 0.744706
vt 0.402112 0.743735
vt 0.403185 1.000000
vt 0.623739 0.128745
vt 0.623109 0.186113
vt 0.624221 0.286552
vt 0.624393 0.314270
vt 0.625000 0.377335
vt 0.624874 0.377243
vt 0.624638 0.333924
vt 0.624402 0.290606
vt 0.624166 0.247288
vt 0.623931 0.203970
vt 0.625000 0.625000
vt 0.623865 0.376503
vt 0.624101 0.419821
vt 0.624337 0.463139
vt 0.624573 0.506457
vt 0.624809 0.549776
vt 0.625000 0.740660
vt 0.624825 0.506642
vt 0.624842 0.463509
vt 0.624858 0.420376
vt 0.623914 0.247103
vt 0.623898 0.290236
vt 0.623882 0.333369
vt 0.624346 0.439476
vt 0.624176 0.404252
vt 0.624060 0.286434
vt 0.624122 0.279392
vt 0.624519 0.467193
vt 0.624027 0.314001
vt 0.624617 0.474353
vt 0.624036 0.349107
vt 0.624712 0.439744
vt 0.624680 0.467311
vt 0.624085 0.376664
vt 0.624703 0.404639
vt 0.624654 0.377081
vt 0.624563 0.349493
vt 0.624069 0.258486
vt 0.624006 0.271786
vt 0.624715 0.377126
vt 0.624592 0.343962
vt 0.624670 0.495260
vt 0.624733 0.481960
vt 0.624024 0.376619
vt 0.624148 0.409783
vt 0.623979 0.343513
vt 0.623979 0.305045
vt 0.624200 0.271928
vt 0.624397 0.305352
vt 0.624760 0.410232
vt 0.624761 0.448700
vt 0.624540 0.481818
vt 0.624343 0.448393
vt 0.624589 0.463324
vt 0.624117 0.376688
vt 0.624353 0.420006
vt 0.624150 0.290421
vt 0.624134 0.333554
vt 0.624386 0.333739
vt 0.624370 0.376873
vt 0.624622 0.377058
vt 0.624606 0.420191
vt 0.402112 0.508565
vt 0.387145 0.518419
vt 0.610838 0.738336
vt 0.387145 0.733842
vt 0.610838 0.600234
vt 0.590655 0.529619
vt 0.610842 0.678466
vt 0.625000 0.682830
vt 0.414773 0.125000
vt 0.457386 0.168069
vt 0.500000 0.211139
vt 0.585227 0.125000
vt 0.542614 0.081931
vt 0.500000 0.038861
vt 0.457386 0.081931
vt 0.542614 0.168069
vt 0.522977 0.101777
vt 0.545954 0.125000
vt 0.522977 0.148223
vt 0.500000 0.171445
vt 0.477023 0.148223
vt 0.454046 0.125000
vt 0.477023 0.101777
vt 0.500000 0.078555
vt 0.468407 0.110486
vt 0.459790 0.119194
vt 0.485639 0.156931
vt 0.494256 0.165640
vt 0.531593 0.139514
vt 0.540210 0.130806
vt 0.514361 0.093069
vt 0.505744 0.084360
vt 0.000000 0.000000
s 0
usemtl BigShiny
f 136/119/5 137/120/5 138/121/5 139/122/5 140/123/5 141/124/5 142/125/5 143/126/5
s 1
f 136/119/55 137/120/56 145/120/57 144/119/58
f 137/120/56 138/121/59 146/121/60 145/120/57
f 143/126/61 136/119/55 144/119/58 148/126/62
f 138/121/59 139/122/63 147/122/64 146/121/60
f 141/124/65 142/125/66 151/125/67 150/124/68
f 139/122/63 140/123/69 149/123/70 147/122/64
f 142/125/66 143/126/61 148/126/62 151/125/67
f 140/123/69 141/124/65 150/124/68 149/123/70
f 165/124/71 166/127/72 159/128/73 158/124/74
f 162/122/75 167/129/76 157/130/77 155/122/78
f 163/119/79 164/120/80 153/120/81 152/119/82
f 164/120/80 161/131/83 154/132/84 153/120/81
f 168/126/85 163/133/79 152/134/82 156/126/86
f 166/125/72 168/126/85 156/126/86 159/125/73
f 167/123/76 165/124/71 158/124/74 157/123/77
f 161/121/83 162/122/75 155/122/78 154/121/84
f 153/120/81 160/135/87 156/126/86 152/134/82
f 158/124/74 159/125/73 156/126/86 160/135/87
f 157/123/77 158/124/74 160/135/87 155/122/78
f 155/122/78 160/135/87 153/120/81 154/132/84
f 146/121/60 147/122/64 162/122/75 161/121/83
f 149/123/70 150/124/68 165/124/71 167/123/76
f 151/125/67 148/126/62 168/126/85 166/125/72
f 148/126/62 144/119/58 163/133/79 168/126/85
f 145/120/57 146/121/60 161/131/83 164/120/80
f 144/119/58 145/120/57 164/120/80 163/119/79
f 147/122/64 149/123/70 167/129/76 162/122/75
f 150/124/68 151/125/67 166/127/72 165/124/71
usemtl Antenna
f 137/120/47 136/119/48 135/115/48 131/114/47
f 129/111/49 141/124/49 140/123/50 133/112/50
f 128/113/51 139/122/51 138/121/52 132/118/52
f 143/126/53 142/125/54 134/117/54 130/116/53
f 138/121/52 137/120/47 131/114/47 132/118/52
f 136/119/48 143/126/53 130/116/53 135/115/48
f 129/111/49 134/117/54 142/125/54 141/124/49
f 128/113/51 133/112/50 140/123/50 139/122/51
s 0
usemtl Body
f 17/9/5 18/10/5 19/11/5
f 20/12/5 21/13/5 22/14/5
f 23/15/5 24/16/5 25/17/5
f 26/18/5 27/19/5 28/20/5
f 107/21/6 18/22/6 17/23/6 106/24/6
f 109/25/7 29/26/7 24/27/7 23/28/7 108/29/7
f 20/30/8 110/31/8 111/32/8 21/33/8
f 26/34/9 31/35/9 112/36/9 113/37/9 27/19/9
f 17/9/10 27/19/10 113/37/10 106/24/10
f 14/38/10 15/39/10 120/39/10 117/38/10
f 18/22/11 107/21/11 110/31/11 20/30/11
f 111/32/12 108/29/12 23/28/12 21/40/12
f 4/4/5 2/2/5 19/11/5 18/10/5 20/12/5 22/14/5
f 2/2/5 1/1/5 28/20/5 27/19/5 17/9/5 19/11/5
f 3/6/5 4/4/5 22/14/5 21/13/5 23/15/5 25/17/5
f 1/1/5 3/6/5 25/17/5 24/41/5 32/42/5 26/18/5 28/20/5
f 75/43/13 76/44/13 88/44/13 83/43/13
f 29/45/14 52/46/14 51/47/14 60/48/14 59/49/14 50/50/14 32/41/14 24/16/14
f 114/51/14 112/36/14 31/34/14 56/52/14 55/53/14 64/54/14 63/55/14 54/56/14
f 109/57/14 114/51/14 54/56/14 53/58/14 62/59/14 61/60/14 52/46/14 29/45/14
f 50/50/14 49/61/14 58/62/14 57/63/14 56/52/14 31/34/14 26/18/14 32/41/14
f 80/64/15 71/65/15 82/65/15 87/64/15
f 65/66/16 33/67/16 102/67/16 96/66/16
f 33/67/17 75/43/17 83/43/17 102/67/17
f 79/68/18 80/64/18 87/64/18 92/68/18
f 74/69/19 65/66/19 96/66/19 97/69/19
f 35/70/20 79/68/20 92/68/20 104/70/20
f 73/71/21 74/69/21 97/69/21 98/71/21
f 78/72/22 69/73/22 101/73/22 100/72/22
f 36/74/23 73/71/23 98/71/23 105/74/23
f 77/75/24 78/72/24 100/72/24 99/75/24
f 71/65/25 36/74/25 105/74/25 82/65/25
f 34/76/26 77/75/26 99/75/26 103/76/26
f 69/73/27 35/70/27 104/70/27 101/73/27
f 76/44/28 67/77/28 93/77/28 88/44/28
f 67/77/29 34/76/29 103/76/29 93/77/29
f 66/78/30 39/79/30 49/61/30 50/50/30
f 68/80/31 42/81/31 51/47/31 52/46/31
f 70/82/32 45/83/32 53/58/32 54/56/32
f 72/84/33 48/85/33 55/53/33 56/52/33
f 37/86/34 72/84/34 56/52/34 57/63/34
f 38/87/35 37/86/35 57/63/35 58/62/35
f 39/79/36 38/87/36 58/62/36 49/61/36
f 40/88/37 66/78/37 50/50/37 59/49/37
f 41/89/38 40/88/38 59/49/38 60/48/38
f 42/81/39 41/89/39 60/48/39 51/47/39
f 43/90/40 68/80/40 52/46/40 61/60/40
f 44/91/41 43/90/41 61/60/41 62/59/41
f 45/83/42 44/91/42 62/59/42 53/58/42
f 46/92/43 70/82/43 54/56/43 63/55/43
f 47/93/44 46/92/44 63/55/44 64/54/44
f 48/85/45 47/93/45 64/54/45 55/53/45
f 33/67/14 65/66/14 39/79/14 66/78/14
f 34/76/14 67/77/14 42/81/14 68/80/14
f 35/70/14 69/73/14 45/83/14 70/82/14
f 36/74/14 71/65/14 48/85/14 72/84/14
f 73/71/14 36/74/14 72/84/14 37/86/14
f 74/69/14 73/71/14 37/86/14 38/87/14
f 65/66/14 74/69/14 38/87/14 39/79/14
f 75/43/14 33/67/14 66/78/14 40/88/14
f 76/44/14 75/43/14 40/88/14 41/89/14
f 67/77/14 76/44/14 41/89/14 42/81/14
f 77/75/14 34/76/14 68/80/14 43/90/14
f 78/72/14 77/75/14 43/90/14 44/91/14
f 69/73/14 78/72/14 44/91/14 45/83/14
f 79/68/14 35/70/14 70/82/14 46/92/14
f 80/64/14 79/68/14 46/92/14 47/93/14
f 71/65/14 80/64/14 47/93/14 48/85/14
f 91/94/14 101/73/14 104/70/14 92/68/14
f 98/71/14 81/95/14 82/65/14 105/74/14
f 81/95/14 86/96/14 87/64/14 82/65/14
f 86/96/14 91/94/14 92/68/14 87/64/14
f 102/67/14 83/43/14 84/97/14 96/66/14
f 96/66/14 84/97/14 85/98/14 97/69/14
f 97/69/14 85/98/14 81/95/14 98/71/14
f 83/43/14 88/44/14 89/99/14 84/97/14
f 84/97/14 89/99/14 90/100/14 85/98/14
f 85/98/14 90/100/14 86/96/14 81/95/14
f 88/44/14 93/77/14 94/101/14 89/99/14
f 89/99/14 94/101/14 95/102/14 90/100/14
f 90/100/14 95/102/14 91/94/14 86/96/14
f 93/77/14 103/76/14 99/75/14 94/101/14
f 94/101/14 99/75/14 100/72/14 95/102/14
f 95/102/14 100/72/14 101/73/14 91/94/14
f 12/103/46 11/104/46 107/21/46 106/24/46
f 14/38/46 13/105/46 109/57/46 108/29/46
f 16/106/46 15/39/46 111/32/46 110/31/46
f 10/107/46 9/108/46 113/37/46 112/51/46
f 9/108/46 12/103/46 106/24/46 113/37/46
f 11/104/46 16/106/46 110/31/46 107/21/46
f 15/39/46 14/38/46 108/29/46 111/32/46
f 13/105/46 30/109/46 114/110/46 109/57/46
f 30/109/46 10/107/46 112/51/46 114/110/46
f 116/104/46 115/103/46 122/108/46 121/107/46 123/109/46 118/105/46 117/38/46 120/39/46 119/106/46
f 9/108/8 10/107/8 121/107/8 122/108/8
f 11/104/7 12/103/7 115/103/7 116/104/7
f 30/109/11 13/105/11 118/105/11 123/109/11
f 12/103/12 9/108/12 122/108/12 115/103/12
f 13/105/6 14/38/6 117/38/6 118/105/6
f 10/107/11 30/109/11 123/109/11 121/107/11
f 16/106/14 11/104/14 116/104/14 119/106/14
f 15/39/9 16/106/9 119/106/9 120/39/9
usemtl MountThing
f 1/1/1 2/2/1 5/2/1 126/3/1 8/1/1
f 2/2/2 4/4/2 6/4/2 124/5/2 5/2/2
f 3/6/3 1/1/3 8/1/3 127/7/3 7/6/3
f 4/4/4 3/6/4 7/6/4 125/8/4 6/4/4
f 124/5/5 129/111/5 133/112/5 128/113/5 126/3/5 5/2/5
f 125/8/5 7/6/5 127/7/5 131/114/5 135/115/5 130/116/5
f 6/4/5 125/8/5 130/116/5 134/117/5 129/111/5 124/5/5
f 128/113/5 132/118/5 131/114/5 127/7/5 8/1/5 126/3/5
o Cube.001
v 0.000000 1.449436 0.474374
v -0.474374 1.449436 0.000000
v 0.474374 1.449436 0.000000
v 0.000000 1.449436 -0.474374
v 0.000000 1.305719 0.580987
v 0.000000 1.388694 0.547760
v -0.136940 1.471669 0.410820
v -0.290493 1.481735 0.290493
v -0.410820 1.471669 0.136940
v -0.547760 1.388694 0.000000
v -0.580987 1.305719 0.000000
v -0.410820 1.471669 -0.136940
v -0.290493 1.481735 -0.290493
v -0.136940 1.471669 -0.410820
v 0.000000 1.388694 -0.547760
v 0.000000 1.305719 -0.580987
v 0.136940 1.471669 -0.410820
v 0.290493 1.481735 -0.290493
v 0.410820 1.471669 -0.136940
v 0.547760 1.388694 0.000000
v 0.580987 1.305719 0.000000
v 0.410820 1.471669 0.136940
v 0.290493 1.481735 0.290493
v 0.136940 1.471669 0.410820
v -0.000000 1.508965 -0.335433
v 0.183724 1.528364 -0.183724
v 0.335433 1.508965 0.000000
v -0.183724 1.528364 -0.183724
v -0.000000 1.554644 0.000000
v 0.183724 1.528364 0.183724
v -0.335433 1.508965 0.000000
v -0.183724 1.528364 0.183724
v -0.000000 1.508965 0.335433
v -0.551172 0.694697 0.183724
v -0.410820 0.694697 0.410820
v -0.183724 0.694697 0.551172
v -0.183724 0.694697 -0.551172
v -0.410820 0.694697 -0.410820
v -0.551172 0.694697 -0.183724
v 0.551172 0.694697 -0.183724
v 0.551172 1.305719 0.183724
v 0.410820 1.305719 0.410820
v 0.183724 1.305719 0.551172
v 0.503149 1.407342 0.167716
v 0.367448 1.417041 0.367448
v 0.167716 1.407342 0.503149
v 0.410820 0.694697 -0.410820
v 0.183724 0.694697 -0.551172
v 0.183724 0.694697 0.551172
v 0.183724 1.305719 -0.551172
v 0.410820 1.305719 -0.410820
v 0.551172 1.305719 -0.183724
v 0.167716 1.407342 -0.503149
v 0.367448 1.417041 -0.367448
v 0.503149 1.407342 -0.167716
v 0.410820 0.694697 0.410820
v 0.551172 0.694697 0.183724
v 0.580987 0.694697 0.000000
v -0.551172 1.305719 -0.183724
v -0.410820 1.305719 -0.410820
v -0.183724 1.305719 -0.551172
v -0.503149 1.407342 -0.167716
v -0.367448 1.417041 -0.367448
v -0.167716 1.407342 -0.503149
v 0.000000 0.694697 -0.580987
v -0.580987 0.694697 0.000000
v 0.000000 0.694697 0.580987
v -0.183724 1.305719 0.551172
v -0.410820 1.305719 0.410820
v -0.551172 1.305719 0.183724
v -0.167716 1.407342 0.503149
v -0.367448 1.417041 0.367448
v -0.503149 1.407342 0.167716
vn -0.0000 0.8524 0.5229
vn -0.5229 0.8524 -0.0000
vn 0.5229 0.8524 -0.0000
vn -0.0000 0.8524 -0.5229
vn -0.0000 0.2082 0.9781
vn -0.0000 0.6016 0.7988
vn -0.1519 0.8934 0.4228
vn -0.2947 0.9090 0.2947
vn -0.4228 0.8934 0.1519
vn -0.7988 0.6016 -0.0000
vn -0.9781 0.2082 -0.0000
vn -0.4228 0.8934 -0.1519
vn -0.2947 0.9090 -0.2947
vn -0.1519 0.8934 -0.4228
vn -0.0000 0.6016 -0.7988
vn -0.0000 0.2082 -0.9781
vn 0.1519 0.8934 -0.4228
vn 0.2947 0.9090 -0.2947
vn 0.4228 0.8934 -0.1519
vn 0.7988 0.6016 -0.0000
vn 0.9781 0.2082 -0.0000
vn 0.4228 0.8934 0.1519
vn 0.2947 0.9090 0.2947
vn 0.1519 0.8934 0.4228
vn -0.0000 0.9620 -0.2731
vn 0.1372 0.9810 -0.1372
vn 0.2731 0.9620 -0.0000
vn -0.1372 0.9810 -0.1372
vn -0.0000 1.0000 -0.0000
vn 0.1372 0.9810 0.1372
vn -0.2731 0.9620 -0.0000
vn -0.1372 0.9810 0.1372
vn -0.0000 0.9620 0.2731
vn -0.6991 -0.6657 0.2609
vn -0.5319 -0.6589 0.5319
vn -0.2609 -0.6657 0.6991
vn -0.2609 -0.6657 -0.6991
vn -0.5319 -0.6589 -0.5319
vn -0.6991 -0.6657 -0.2609
vn 0.6991 -0.6657 -0.2609
vn 0.9120 0.2192 0.3467
vn 0.6879 0.2314 0.6879
vn 0.3467 0.2192 0.9120
vn 0.7132 0.6448 0.2749
vn 0.5262 0.6679 0.5262
vn 0.2749 0.6448 0.7132
vn 0.5319 -0.6589 -0.5319
vn 0.2609 -0.6657 -0.6991
vn 0.2609 -0.6657 0.6991
vn 0.3467 0.2192 -0.9120
vn 0.6879 0.2314 -0.6879
vn 0.9120 0.2192 -0.3467
vn 0.2749 0.6448 -0.7132
vn 0.5262 0.6679 -0.5262
vn 0.7132 0.6448 -0.2749
vn 0.5319 -0.6589 0.5319
vn 0.6991 -0.6657 0.2609
vn 0.7398 -0.6728 -0.0000
vn -0.9120 0.2192 -0.3467
vn -0.6879 0.2314 -0.6879
vn -0.3467 0.2192 -0.9120
vn -0.7132 0.6448 -0.2749
vn -0.5262 0.6679 -0.5262
vn -0.2749 0.6448 -0.7132
vn -0.0000 -0.6728 -0.7398
vn -0.7398 -0.6728 -0.0000
vn -0.0000 -0.6728 0.7398
vn -0.3467 0.2192 0.9120
vn -0.6879 0.2314 0.6879
vn -0.9120 0.2192 0.3467
vn -0.2749 0.6448 0.7132
vn -0.5262 0.6679 0.5262
vn -0.7132 0.6448 0.2749
vt 0.562500 0.187500
vt 0.625000 0.187500
vt 0.625000 0.250000
vt 0.562500 0.250000
vt 0.562500 0.437500
vt 0.625000 0.437500
vt 0.625000 0.500000
vt 0.562500 0.500000
vt 0.562500 0.687500
vt 0.625000 0.687500
vt 0.625000 0.750000
vt 0.562500 0.750000
vt 0.562500 0.937500
vt 0.625000 0.937500
vt 0.625000 1.000000
vt 0.562500 1.000000
vt 0.812500 0.687500
vt 0.875000 0.687500
vt 0.875000 0.750000
vt 0.812500 0.750000
vt 0.687500 0.687500
vt 0.687500 0.750000
vt 0.750000 0.687500
vt 0.750000 0.750000
vt 0.687500 0.500000
vt 0.687500 0.562500
vt 0.625000 0.562500
vt 0.687500 0.625000
vt 0.625000 0.625000
vt 0.750000 0.500000
vt 0.750000 0.562500
vt 0.750000 0.625000
vt 0.812500 0.500000
vt 0.812500 0.562500
vt 0.812500 0.625000
vt 0.875000 0.500000
vt 0.875000 0.562500
vt 0.875000 0.625000
vt 0.500000 0.937500
vt 0.500000 1.000000
vt 0.500000 0.750000
vt 0.562500 0.812500
vt 0.500000 0.812500
vt 0.562500 0.875000
vt 0.500000 0.875000
vt 0.625000 0.812500
vt 0.625000 0.875000
vt 0.500000 0.687500
vt 0.500000 0.125000
vt 0.500000 0.187500
vt 0.500000 0.250000
vt 0.500000 0.312500
vt 0.500000 0.375000
vt 0.500000 0.437500
vt 0.500000 0.500000
vt 0.500000 0.562500
vt 0.500000 0.625000
vt 0.500000 0.000000
vt 0.500000 0.062500
vt 0.562500 0.562500
vt 0.562500 0.625000
vt 0.562500 0.312500
vt 0.562500 0.375000
vt 0.625000 0.312500
vt 0.625000 0.375000
vt 0.562500 0.000000
vt 0.562500 0.062500
vt 0.562500 0.125000
vt 0.625000 0.000000
vt 0.625000 0.062500
vt 0.625000 0.125000
s 1
usemtl BigShiny
f 241/136/160 177/137/96 170/138/89 178/139/97
f 232/140/151 182/141/101 172/142/91 183/143/102
f 223/144/142 187/145/106 171/146/90 188/147/107
f 214/148/133 192/149/111 169/150/88 174/151/93
f 201/152/120 175/153/94 169/154/88 192/155/111
f 187/145/106 195/156/114 190/157/109 171/146/90
f 195/156/114 198/158/117 191/159/110 190/157/109
f 198/158/117 201/152/120 192/155/111 191/159/110
f 172/142/91 182/160/101 193/161/112 185/162/104
f 185/162/104 193/161/112 194/163/113 186/164/105
f 186/164/105 194/163/113 195/156/114 187/145/106
f 182/160/101 181/165/100 196/166/115 193/161/112
f 193/161/112 196/166/115 197/167/116 194/163/113
f 194/163/113 197/167/116 198/158/117 195/156/114
f 181/165/100 180/168/99 199/169/118 196/166/115
f 196/166/115 199/169/118 200/170/119 197/167/116
f 197/167/116 200/170/119 201/152/120 198/158/117
f 180/168/99 170/171/89 177/172/96 199/169/118
f 199/169/118 177/172/96 176/173/95 200/170/119
f 200/170/119 176/173/95 175/153/94 201/152/120
f 211/174/130 214/148/133 174/151/93 173/175/92
f 189/176/108 188/147/107 212/177/131 209/178/128
f 209/178/128 212/177/131 213/179/132 210/180/129
f 210/180/129 213/179/132 214/148/133 211/174/130
f 188/147/107 171/146/90 190/181/109 212/177/131
f 212/177/131 190/181/109 191/182/110 213/179/132
f 213/179/132 191/182/110 192/149/111 214/148/133
f 220/183/139 223/144/142 188/147/107 189/176/108
f 203/184/122 202/185/121 234/186/153 207/187/126 206/188/125 205/189/124 233/190/152 216/191/135 215/192/134 208/183/127 226/176/145 225/178/144 224/180/143 217/174/136 235/193/154 204/194/123
f 184/190/103 183/143/102 221/195/140 218/191/137
f 218/191/137 221/195/140 222/196/141 219/192/138
f 219/192/138 222/196/141 223/144/142 220/183/139
f 183/143/102 172/142/91 185/162/104 221/195/140
f 221/195/140 185/162/104 186/164/105 222/196/141
f 222/196/141 186/164/105 187/145/106 223/144/142
f 227/187/146 228/188/147 206/188/125 207/187/126
f 238/185/157 179/186/98 234/186/153 202/185/121
f 229/189/148 232/140/151 183/143/102 184/190/103
f 219/192/138 220/183/139 208/183/127 215/192/134
f 179/186/98 227/187/146 207/187/126 234/186/153
f 218/191/137 219/192/138 215/192/134 216/191/135
f 229/189/148 184/190/103 233/190/152 205/189/124
f 210/180/129 211/174/130 217/174/136 224/180/143
f 184/190/103 218/191/137 216/191/135 233/190/152
f 179/186/98 178/139/97 230/197/149 227/187/146
f 227/187/146 230/197/149 231/198/150 228/188/147
f 228/188/147 231/198/150 232/140/151 229/189/148
f 178/139/97 170/138/89 180/199/99 230/197/149
f 230/197/149 180/199/99 181/200/100 231/198/150
f 231/198/150 181/200/100 182/141/101 232/140/151
f 209/178/128 210/180/129 224/180/143 225/178/144
f 220/183/139 189/176/108 226/176/145 208/183/127
f 238/185/157 241/136/160 178/139/97 179/186/98
f 189/176/108 209/178/128 225/178/144 226/176/145
f 237/184/156 238/185/157 202/185/121 203/184/122
f 211/174/130 173/175/92 235/175/154 217/174/136
f 236/194/155 237/184/156 203/184/122 204/194/123
f 228/188/147 229/189/148 205/189/124 206/188/125
f 173/193/92 236/194/155 204/194/123 235/193/154
f 173/193/92 174/201/93 239/202/158 236/194/155
f 236/194/155 239/202/158 240/203/159 237/184/156
f 237/184/156 240/203/159 241/136/160 238/185/157
f 174/201/93 169/204/88 175/205/94 239/202/158
f 239/202/158 175/205/94 176/206/95 240/203/159
f 240/203/159 176/206/95 177/137/96 241/136/160
